<svg t="1700931676609" class="icon" viewBox="0 0 1024 1024" version="1.1" xmlns="http://www.w3.org/2000/svg" p-id="7310"
     width="48" height="48">
    <path d="M616 129.9s-30.2 671.6-63.8 780.4c0 0-331.9 104.4-366.4-157.9 0 0 110.9 7.2 143.9-12.9 0 0-208.4-102-37.5-411.1 0 0 70.5 52.2 116.9 139.1s64.5 61.4 64.5 61.4-30-114.6-22.5-175.7c7.5-61.1 15-105.2 164.9-223.3 0 0 137.9 120.8 148.4 198.5s-9 148.1 0 148.1 92.8-59.3 127.4-54.4c0 0 27.1 153.3 0 222.9s-88.4 134.3-88.4 134.3 42.3 40.5 124.6 46.5c0 0-137.4 196.9-375.8 84.5"
          fill="#77DBCF" p-id="7311"></path>
    <path d="M624.7 927.2c-43.1 0-91.2-9.4-144-33.4-34.2 9.6-187.8 47.4-291.4-18.7-51.1-32.6-81.7-85-91-155.7-0.7-5.2 1-10.4 4.6-14.3 3.6-3.8 8.8-5.9 14-5.5 28.2 1.8 71.6 2.1 102.4-2-23.5-19.8-53.9-53.8-70.3-106-27-85.5-7.5-188.8 57.9-307 2.5-4.4 6.7-7.6 11.6-8.7 5-1.1 10.1 0 14.2 3 3 2.2 74.2 55.6 122 145 9.5 17.7 17.4 29.9 23.6 38.2-8.5-39.9-19.7-104.1-14.6-146.4 8.4-68.5 21.2-116.5 171.4-234.9 3.2-2.5 7.6-4 11.5-3.8h0.5c4 0.3 7.7 1.9 10.5 4.4 7.3 6.4 143 126.5 154.2 209.2 6.4 47.5 2.2 91.3-0.6 120.4-0.1 0.7-0.1 1.3-0.2 2 0.5-0.3 0.9-0.5 1.4-0.8 43.3-24.8 84.3-46.8 111.9-42.9 7.5 1.1 13.5 6.8 14.8 14.3 1.1 6.5 27.6 159-0.9 232.3-20.5 52.6-58.8 101.7-78.9 125.3 17.3 11.1 51.1 28 100.1 31.6 6.3 0.5 11.9 4.3 14.6 10 2.7 5.7 2.1 12.4-1.5 17.6-1.5 1.9-90.9 126.8-247.8 126.8z m-122-62C669.8 937 781 849 823.8 803.9c-66.3-12.8-101.1-45.4-102.7-47-7-6.7-7.2-17.7-0.6-24.7 0.6-0.6 59.3-63.1 84.8-128.6 18.5-47.7 9-147.6 1.6-197.8-22.5 5.9-59.6 27.1-77.2 37.2-22.1 12.7-28.2 16-35.4 16-5 0-10.8-2.6-14.1-6.3-7.5-8.3-6.5-18.2-4-44.8 2.6-27.4 6.6-68.8 0.7-112.3-6.4-47-71.1-119-115.3-162.2-6.7 138.4-31 606.9-58.9 731.8zM136.5 735.8c10.6 49.4 34.6 86.3 71.5 109.8 87.4 55.8 223.5 25 259.6 15.4 27-110.6 51.9-587.5 58.7-728-117 97.1-121.7 135.5-128.1 187.2-7 57.1 21.8 168 22.1 169.1 1.3 5 0.3 10.3-2.6 14.5-4.1 5.7-12.6 11.4-24.2 10.9-21.5-1.3-43.8-24.9-70.1-74.1-30.9-57.8-73.4-100.1-96.1-120.2-52.5 101.5-67.6 189.1-45.1 260.7 24.3 76.9 84.3 107.1 84.9 107.4 5.8 2.8 9.5 8.6 9.8 15 0.3 6.4-2.9 12.5-8.4 15.8-28.1 17.2-95.2 17.7-132 16.5z m553.9-311.4z"
          fill="#333333" p-id="7312"></path>
    <path d="M465.3 869.6h-0.3C348.7 867.9 132.9 749.1 123.8 744c-8.5-4.7-11.6-15.4-6.9-23.9 4.7-8.5 15.4-11.5 23.9-6.9 2 1.1 178.1 98.1 291.3 117.8-53.8-90.7-207.4-362-227.5-535.8-1.1-9.6 5.8-18.3 15.4-19.5 9.7-1.1 18.4 5.8 19.5 15.4 23 199.1 238.5 548.2 240.7 551.7 3.4 5.4 3.5 12.3 0.4 17.9-3.1 5.5-9 8.9-15.3 8.9z"
          fill="#333333" p-id="7313"></path>
    <path d="M504.2 873h-5.3c-7.2-0.1-13.6-4.6-16.2-11.3s-0.8-14.3 4.5-19.2c1.8-1.6 177.6-165 295.7-428.7 4-8.8 14.3-12.8 23.2-8.8 8.8 4 12.8 14.3 8.8 23.2-91.7 204.7-214.3 347.6-271.8 408.1 129.2-9.9 307.7-61.9 309.7-62.5 9.3-2.7 19.1 2.6 21.8 11.9 2.7 9.3-2.6 19-11.9 21.8-9.2 2.7-225.1 65.5-358.5 65.5z"
          fill="#333333" p-id="7314"></path>
</svg>